<?xml version="1.0" encoding="utf-8"?><!-- Uploaded to: SVG Repo, www.svgrepo.com, Generator: SVG Repo Mixer Tools -->
<svg width="800px" height="800px" viewBox="0 0 24 24" fill="none" xmlns="http://www.w3.org/2000/svg">
<path fill-rule="evenodd" clip-rule="evenodd" d="M15.9389 0.18598C16.4702 0.102408 16.9725 0.454097 17.0757 0.981975C17.2725 2.31354 17.3264 3.7032 16.8963 4.99818C17.2323 5.03578 17.587 5.11567 17.961 5.24909C19.6655 5.85718 20.6768 7.22288 21.2493 8.61139C21.385 8.94043 21.3355 9.31677 21.1195 9.5996C20.9034 9.88243 20.5533 10.0291 20.2002 9.98476C18.8395 9.81385 18 11.2888 18 12.4723C18 13.6663 18.8616 15.1578 20.2343 14.9551C20.5813 14.9039 20.9298 15.0383 21.1526 15.3092C21.3755 15.5801 21.4401 15.9479 21.3228 16.2786C20.4042 18.8697 18.6123 21.3691 16.5131 22.6239C15.8866 22.9983 15.2619 23.0364 14.6928 22.8996C14.2283 22.7879 13.8054 22.5607 13.3896 22.3325C12.7985 22.0087 12.4181 21.8215 12 21.8215C11.5819 21.8215 11.2015 22.0087 10.6104 22.3325C10.1946 22.5607 9.77173 22.7879 9.30716 22.8996C8.73813 23.0364 8.11336 22.9983 7.48692 22.6239C5.94833 21.7042 4.58791 20.1238 3.61563 18.3615C2.64111 16.5951 2 14.5441 2 12.6156C2 11.4859 2.18364 9.98182 2.75469 8.60172C3.3278 7.21662 4.33844 5.85577 6.03899 5.24909C8.01136 4.54543 9.44668 5.33051 10.4392 5.95795C10.452 5.00574 10.6115 3.69261 11.3364 2.6573C12.34 1.22403 14.2513 0.452307 15.9389 0.18598ZM6.71101 7.13281C7.86767 6.72016 8.60885 7.15971 9.62114 7.80866C10.3434 8.27332 11.1111 8.74136 12 8.74136C12.8889 8.74136 13.6566 8.27331 14.3789 7.80866C15.3911 7.15972 16.1323 6.72017 17.289 7.13281C17.8735 7.34135 18.349 7.71032 18.7314 8.19753C17.0785 8.80977 16 10.5855 16 12.4723C16 14.435 17.167 16.2775 18.9336 16.8152C18.0714 18.5969 16 20.7925 15.4869 20.9072C15.0892 20.9961 14.6435 20.739 14.3506 20.5786C13.6174 20.1761 12.8553 19.8215 12 19.8215C11.0276 19.8215 10.2323 20.2584 9.70567 20.5477C9.39395 20.7188 8.88337 21.1285 8.51308 20.9072C7.36157 20.2189 6.22198 18.9454 5.36679 17.3954C4.51384 15.8493 4 14.1294 4 12.6156C4 11.6677 4.1588 10.4393 4.60273 9.36639C5.04459 8.2985 5.72146 7.48584 6.71101 7.13281ZM14.6893 5.005C14.1791 5.73362 13.2659 6.12202 12.4439 6.38708C12.4119 5.52406 12.4645 4.53307 12.9747 3.80445C13.4849 3.07582 14.3981 2.68742 15.22 2.42236C15.2521 3.28539 15.1995 4.27637 14.6893 5.005Z" fill="#000000"/>
</svg>