<?xml version="1.0" encoding="utf-8"?><!-- Uploaded to: SVG Repo, www.svgrepo.com, Generator: SVG Repo Mixer Tools -->
<svg fill="#000000" width="800px" height="800px" viewBox="0 0 30 30" xmlns="http://www.w3.org/2000/svg"><path d="M0 15c0 7.033 4.836 12.945 11.375 14.563.3.077.635-.19.625-.5V22.5c0-.333.197-.652.563-.844.37-.185.28-.856-.125-.937-1.9-.38-3.52-1.143-4.657-2.157C6.646 17.547 6 16.314 6 15c0-.915.327-1.793.906-2.594.06-.082.092-.18.094-.28V7.343l3.97 2.125c.122.066.273.077.405.03C12.488 9.168 13.698 9 15 9s2.512.168 3.625.5c.132.047.283.035.406-.03L23 7.343v4.78c.002.1.035.2.094.282.58.8.906 1.68.906 2.594 0 1.315-.645 2.548-1.78 3.563-1.138 1.014-2.76 1.776-4.657 2.156-.406.08-.495.75-.125.936.365.192.562.51.562.844v6.563c-.01.31.326.577.625.5C25.165 27.945 30 22.032 30 15c0-8.278-6.722-15-15-15C6.722 0 0 6.722 0 15zM15 1c7.738 0 14 6.262 14 14 0 6.33-4.24 11.547-10 13.28V22.5c0-.4-.154-.756-.375-1.063 1.663-.457 3.182-1.175 4.28-2.156C24.206 18.124 25 16.64 25 15c0-1.083-.394-2.074-1-2.97V6.5c.003-.35-.446-.613-.75-.437L18.656 8.53C17.516 8.22 16.296 8 15 8c-1.295 0-2.517.218-3.656.53L6.75 6.064c-.304-.176-.753.087-.75.437v5.53c-.606.896-1 1.887-1 2.97 0 1.64.795 3.123 2.094 4.28 1.1.982 2.62 1.7 4.28 2.158-.22.306-.374.66-.374 1.062v1.688c-1.09.406-1.807.493-2.25.406-.478-.094-.736-.34-1.03-.75-.592-.823-1.173-2.34-3.095-2.836-.654-.175-.875.8-.25.97 1.508.39 1.805 1.448 2.53 2.46.364.505.886.973 1.658 1.125.643.126 1.422.03 2.437-.313v3.03C5.242 26.548 1 21.33 1 15 1 7.262 7.262 1 15 1z"/></svg>