<svg width="549" height="338" viewBox="0 0 549 338" fill="none" xmlns="http://www.w3.org/2000/svg">
<path d="M254.433 116.294C254.433 181.855 205.927 194.316 142.242 186.009C82.6609 206.776 43.9951 174.405 43.9951 116.294C43.9951 58.1833 91.1032 11.0752 149.214 11.0752C207.325 11.0752 254.433 58.1833 254.433 116.294Z" fill="white"/>
<path d="M202.91 117.444C199.473 147.755 182.499 141.099 147.387 143.793C112.469 144.304 102.573 133.278 105.619 106.412C108.666 79.5455 132.915 60.2359 159.781 63.2825C186.647 66.3291 205.957 90.5781 202.91 117.444Z" fill="black"/>
<path d="M203.276 97.2733C195.61 111.496 188.578 104.878 170.786 99.2789C153.52 92.6454 150.829 85.2737 157.623 72.667C164.418 60.0603 180.146 55.3489 192.753 62.1437C205.36 68.9386 210.071 84.6667 203.276 97.2733Z" fill="white"/>
<path d="M417.799 221.514C478.968 221.514 528.556 171.926 528.556 110.757C528.556 49.5876 478.968 0 417.799 0C356.63 0 307.042 49.5876 307.042 110.757C307.042 171.926 356.63 221.514 417.799 221.514Z" fill="#F977BC"/>
<path d="M419.184 204.9C471.942 204.9 514.712 162.13 514.712 109.372C514.712 56.6134 471.942 13.8442 419.184 13.8442C366.425 13.8442 323.656 56.6134 323.656 109.372C323.656 162.13 366.425 204.9 419.184 204.9Z" fill="white"/>
<path d="M487.872 110.402C477.357 127.803 453.661 141.226 411.784 144.422C368.215 139.79 358.705 127.455 347.473 111.714C347.617 89.8452 357.875 121.061 411.917 124.157C455.539 120.828 488.019 88.0055 487.872 110.402Z" fill="black"/>
<path d="M113.846 198.724C84.7386 225.366 55.5152 234.862 8 209.381C16.8205 258.225 41.015 288.836 63.5693 308.845C134.134 356.801 224.103 344.368 276.144 277.763C317.6 341.704 445.45 355.025 490.483 308.845C535.516 262.665 540.76 246.68 545.17 209.381C499.988 235.703 472.3 229.828 435.796 195.172C362.973 138.584 329.21 142.455 276.144 185.403C216.642 135.439 180.728 143.737 113.846 198.724Z" fill="#EA1889"/>
</svg>
